<svg width="58" height="58" viewBox="0 0 58 58" fill="none" xmlns="http://www.w3.org/2000/svg">
<g clip-path="url(#clip0_6_2)">
<path d="M41.0833 46.4483H12.0833V16.9167H29V12.0833H12.0833C9.425 12.0833 7.25 14.2583 7.25 16.9167V45.9167C7.25 48.575 9.425 50.75 12.0833 50.75H41.0833C43.7417 50.75 45.9167 48.575 45.9167 45.9167V29H41.0833V46.4483Z" fill="black"/>
<path d="M45.9167 4.83333H41.0833V12.0833H33.8333C33.8575 12.1075 33.8333 16.9167 33.8333 16.9167H41.0833V24.1425C41.1075 24.1667 45.9167 24.1425 45.9167 24.1425V16.9167H53.1667V12.0833H45.9167V4.83333Z" fill="black"/>
<path d="M36.25 21.75H16.9167V26.5833H36.25V21.75Z" fill="black"/>
<path d="M16.9167 29V33.8333H36.25V29H29H16.9167Z" fill="black"/>
<path d="M36.25 36.25H16.9167V41.0833H36.25V36.25Z" fill="black"/>
</g>
<defs>
<clipPath id="clip0_6_2">
<rect width="58" height="58" fill="white"/>
</clipPath>
</defs>
</svg>
