<svg width="58" height="58" viewBox="0 0 58 58" fill="none" xmlns="http://www.w3.org/2000/svg">
<g clip-path="url(#clip0_6_13)">
<path d="M45.9167 12.0833V45.9167H12.0833V12.0833H45.9167ZM48.575 7.25H9.425C8.21667 7.25 7.25 8.21667 7.25 9.425V48.575C7.25 49.5417 8.21667 50.75 9.425 50.75H48.575C49.5417 50.75 50.75 49.5417 50.75 48.575V9.425C50.75 8.21667 49.5417 7.25 48.575 7.25ZM26.5833 16.9167H41.0833V21.75H26.5833V16.9167ZM26.5833 26.5833H41.0833V31.4167H26.5833V26.5833ZM26.5833 36.25H41.0833V41.0833H26.5833V36.25ZM16.9167 16.9167H21.75V21.75H16.9167V16.9167ZM16.9167 26.5833H21.75V31.4167H16.9167V26.5833ZM16.9167 36.25H21.75V41.0833H16.9167V36.25Z" fill="black"/>
</g>
<defs>
<clipPath id="clip0_6_13">
<rect width="58" height="58" fill="white"/>
</clipPath>
</defs>
</svg>
